<svg xmlns="http://www.w3.org/2000/svg" viewBox="0 0 64 64">
  <circle cx="32" cy="32" r="30" fill="none" stroke="#2a2a2a" stroke-width="6"/>
  <rect x="29" y="1"  width="6" height="8" rx="1.5" fill="#0d0d0d"/>
  <rect x="29" y="55" width="6" height="8" rx="1.5" fill="#0d0d0d"/>
  <rect x="1"  y="29" width="8" height="6" rx="1.5" fill="#0d0d0d"/>
  <rect x="55" y="29" width="8" height="6" rx="1.5" fill="#0d0d0d"/>
  <g transform="rotate(45 32 32)">
    <rect x="29" y="1"  width="6" height="8" rx="1.5" fill="#0d0d0d"/>
    <rect x="29" y="55" width="6" height="8" rx="1.5" fill="#0d0d0d"/>
    <rect x="1"  y="29" width="8" height="6" rx="1.5" fill="#0d0d0d"/>
    <rect x="55" y="29" width="8" height="6" rx="1.5" fill="#0d0d0d"/>
  </g>
  <circle cx="32" cy="32" r="22" fill="#111"/>
  <circle cx="32" cy="32" r="22" fill="none" stroke="#facc15" stroke-width="1.5"/>
  <polygon points="24,20 24,44 48,32" fill="#facc15"/>
  <circle cx="32" cy="32" r="4" fill="#1a1a1a" stroke="#facc15" stroke-width="1"/>
</svg>
